<svg width="1781" height="1781" viewBox="0 0 1781 1781" fill="none" xmlns="http://www.w3.org/2000/svg">
<path d="M890.354 0C1382.08 2.47411e-05 1780.71 398.625 1780.71 890.354C1780.71 1382.08 1382.08 1780.71 890.354 1780.71C398.625 1780.71 0 1382.08 0 890.354C0.000206279 398.625 398.625 9.89644e-05 890.354 0ZM890.354 90C448.331 90.0001 90.0002 448.331 90 890.354C90 1332.38 448.331 1690.71 890.354 1690.71C1332.38 1690.71 1690.71 1332.38 1690.71 890.354C1690.71 448.331 1332.38 90 890.354 90ZM1253.16 1181C1279.03 1181 1300 1201.93 1300 1227.75V1321.25C1300 1347.07 1279.03 1368 1253.16 1368H456.842C430.972 1368 410 1347.07 410 1321.25V1227.75C410 1201.93 430.972 1181 456.842 1181H1253.16ZM421.25 829C447.069 829 468 849.931 468 875.75V969.25C468 995.069 447.069 1016 421.25 1016H327.75C301.931 1016 281 995.069 281 969.25V875.75C281 849.931 301.931 829 327.75 829H421.25ZM679.25 829C705.069 829 726 849.931 726 875.75V969.25C726 995.069 705.069 1016 679.25 1016H585.75C559.931 1016 539 995.069 539 969.25V875.75C539 849.931 559.931 829 585.75 829H679.25ZM937 829C962.957 829 984 849.931 984 875.75V969.25C984 995.069 962.957 1016 937 1016H843C817.043 1016 796 995.069 796 969.25V875.75C796 849.931 817.043 829 843 829H937ZM1194 829C1219.96 829 1241 849.931 1241 875.75V969.25C1241 995.069 1219.96 1016 1194 1016H1100C1074.04 1016 1053 995.069 1053 969.25V875.75C1053 849.931 1074.04 829 1100 829H1194ZM1452 829C1477.96 829 1499 849.931 1499 875.75V969.25C1499 995.069 1477.96 1016 1452 1016H1358C1332.04 1016 1311 995.069 1311 969.25V875.75C1311 849.931 1332.04 829 1358 829H1452ZM550.25 477C576.069 477 597 498.043 597 524V618C597 643.957 576.069 665 550.25 665H456.75C430.931 665 410 643.957 410 618V524C410 498.043 430.931 477 456.75 477H550.25ZM807.5 477C833.181 477 854 498.043 854 524V618C854 643.957 833.181 665 807.5 665H714.5C688.819 665 668 643.957 668 618V524C668 498.043 688.819 477 714.5 477H807.5ZM1065.25 477C1091.07 477 1112 498.043 1112 524V618C1112 643.957 1091.07 665 1065.25 665H971.75C945.931 665 925 643.957 925 618V524C925 498.043 945.931 477 971.75 477H1065.25ZM1323 477C1348.96 477 1370 498.043 1370 524V618C1370 643.957 1348.96 665 1323 665H1229C1203.04 665 1182 643.957 1182 618V524C1182 498.043 1203.04 477 1229 477H1323Z" fill="black"/>
</svg>
